<?xml version="1.0" standalone="no"?>
<!DOCTYPE svg PUBLIC "-//W3C//DTD SVG 20010904//EN"
 "http://www.w3.org/TR/2001/REC-SVG-20010904/DTD/svg10.dtd">
<svg version="1.0" xmlns="http://www.w3.org/2000/svg"
 width="400.000000pt" height="400.000000pt" viewBox="0 0 400.000000 400.000000"
 preserveAspectRatio="xMidYMid meet">
<metadata>
Created by potrace 1.15, written by Peter Selinger 2001-2017
</metadata>
<g transform="translate(0.000000,400.000000) scale(0.100000,-0.100000)"
fill="#000000" stroke="none">
<path d="M1745 3963 c-191 -25 -482 -115 -640 -198 -323 -169 -574 -394 -767
-690 -108 -163 -158 -267 -217 -447 -80 -244 -96 -348 -96 -628 0 -277 16
-383 92 -614 55 -171 94 -257 169 -379 210 -342 422 -547 771 -747 131 -75
346 -154 538 -197 95 -22 143 -26 350 -30 212 -5 254 -3 360 15 444 76 806
268 1121 594 210 217 354 461 454 768 63 197 72 261 77 549 5 292 -3 376 -58
565 -60 208 -123 352 -232 525 -79 128 -135 199 -242 310 -272 283 -565 456
-940 554 -177 46 -272 57 -500 55 -115 0 -223 -3 -240 -5z m825 -933 l0 -210
-150 0 c-161 0 -209 -10 -229 -48 -7 -13 -11 -87 -11 -186 l0 -166 193 -2 192
-3 -19 -202 -19 -203 -173 0 -174 0 0 -635 0 -635 -247 0 -248 0 0 632 0 633
-133 0 -132 0 0 207 0 207 133 3 132 3 2 229 c2 259 14 322 75 408 39 55 64
76 137 113 101 53 171 63 434 64 l237 1 0 -210z"/>
</g>
</svg>
