<svg id="Layer_1" data-name="Layer 1" xmlns="http://www.w3.org/2000/svg" viewBox="0 0 512 512"><title>facebook</title><g id="post_stamp" data-name="post stamp"><g id="border_stamp" data-name="border stamp"><path d="M420.79,512a26.73,26.73,0,0,0-48.68,0H364.3a26.74,26.74,0,0,0-48.7,0h-7.8a26.74,26.74,0,0,0-48.7,0h-7.8a26.74,26.74,0,0,0-48.7,0h-7.79a26.74,26.74,0,0,0-48.7,0h-7.8a26.74,26.74,0,0,0-48.7,0H81.82a26.74,26.74,0,0,0-48.69,0H0V493a25.29,25.29,0,0,0,15-23.2,25.3,25.3,0,0,0-15-23.2v-6.94a25.29,25.29,0,0,0,15-23.2A25.27,25.27,0,0,0,0,393.29v-7a25.29,25.29,0,0,0,15-23.2A25.29,25.29,0,0,0,0,340v-7.6a25,25,0,0,0,15-22.81,25.09,25.09,0,0,0-15-23v-7.79a25,25,0,0,0,15-22.66,25.15,25.15,0,0,0-15-22.9v-7.79a25,25,0,0,0,15-22.81,25.09,25.09,0,0,0-15-23V172a25.29,25.29,0,0,0,15-23.19,25.29,25.29,0,0,0-15-23.2v-7A25.27,25.27,0,0,0,15,95.51,25.29,25.29,0,0,0,0,72.31V65.37a25.29,25.29,0,0,0,15-23.2A25.29,25.29,0,0,0,0,19V0H33.13A26.47,26.47,0,0,0,57.48,15.69,26.46,26.46,0,0,0,81.82,0h7.79A26.48,26.48,0,0,0,114,15.69,26.47,26.47,0,0,0,138.32,0h7.8a26.48,26.48,0,0,0,24.35,15.69A26.47,26.47,0,0,0,194.82,0h7.79A26.5,26.5,0,0,0,227,15.69,26.46,26.46,0,0,0,251.31,0h7.8a26.47,26.47,0,0,0,24.34,15.69A26.48,26.48,0,0,0,307.8,0h7.8a26.46,26.46,0,0,0,24.34,15.69A26.46,26.46,0,0,0,364.3,0h7.81a26.47,26.47,0,0,0,24.35,15.69A26.45,26.45,0,0,0,420.79,0h7.81a26.46,26.46,0,0,0,24.35,15.69A26.46,26.46,0,0,0,477.29,0H512V19a25.46,25.46,0,0,0,0,46.39v6.94a25.46,25.46,0,0,0,0,46.39v7A25.46,25.46,0,0,0,512,172v7.6a25,25,0,0,0,0,45.79v7.79a25,25,0,0,0-14.95,22.67c.23,10.35,6.18,19.16,14.95,22.89v7.79a25,25,0,0,0,0,45.79V340a25.45,25.45,0,0,0,0,46.39v7a25.46,25.46,0,0,0,0,46.39v6.94A25.46,25.46,0,0,0,512,493v19H477.29a26.74,26.74,0,0,0-48.69,0Z" fill="#c6b99b"/></g><path id="inner_color_stamp" data-name="inner color stamp" d="M481.31,505.34a33.5,33.5,0,0,0-56.61-.18,33.49,33.49,0,0,0-56.49,0,33.5,33.5,0,0,0-56.5,0,33.51,33.51,0,0,0-56.5,0,33.5,33.5,0,0,0-56.49,0,33.51,33.51,0,0,0-56.5,0,33.5,33.5,0,0,0-56.49,0,33.5,33.5,0,0,0-56.61.19H6.65V497a32.16,32.16,0,0,0,15-27.2A32.19,32.19,0,0,0,7.47,443.15a32.17,32.17,0,0,0,14.16-26.67A32.17,32.17,0,0,0,7.47,389.82a32.17,32.17,0,0,0,14.16-26.67A32.15,32.15,0,0,0,7,336.17a31.82,31.82,0,0,0,14.62-26.53v-.38a31.81,31.81,0,0,0-14.74-26.6,31.87,31.87,0,0,0,14.74-26.41v-.51A31.87,31.87,0,0,0,6.87,229.33a31.83,31.83,0,0,0,14.74-26.61v-.37A31.83,31.83,0,0,0,7,175.83a32.15,32.15,0,0,0,14.63-27A32.18,32.18,0,0,0,7.47,122.18,32.17,32.17,0,0,0,21.62,95.51,32.18,32.18,0,0,0,7.47,68.84,32.19,32.19,0,0,0,21.62,42.17,32.15,32.15,0,0,0,6.65,15V6.66H29.11A33.4,33.4,0,0,0,57.48,22.34,33.4,33.4,0,0,0,85.72,6.85,33.42,33.42,0,0,0,114,22.34,33.4,33.4,0,0,0,142.21,6.84a33.4,33.4,0,0,0,28.25,15.49A33.41,33.41,0,0,0,198.71,6.85,33.41,33.41,0,0,0,227,22.34,33.38,33.38,0,0,0,255.2,6.84a33.4,33.4,0,0,0,28.25,15.49A33.41,33.41,0,0,0,311.71,6.84a33.36,33.36,0,0,0,28.24,15.49A33.41,33.41,0,0,0,368.21,6.84a33.4,33.4,0,0,0,28.25,15.49A33.4,33.4,0,0,0,424.69,6.84a33.38,33.38,0,0,0,28.25,15.49A33.39,33.39,0,0,0,481.31,6.66h24.05V15a32.2,32.2,0,0,0-.81,53.87,32.2,32.2,0,0,0,0,53.34,32.2,32.2,0,0,0,.47,53.65,31.83,31.83,0,0,0-14.61,26.52v.39a31.88,31.88,0,0,0,14.74,26.6,31.88,31.88,0,0,0-14.73,26.41v.52a31.88,31.88,0,0,0,14.73,26.41,31.86,31.86,0,0,0-14.74,26.6v.38A31.81,31.81,0,0,0,505,336.17a32.19,32.19,0,0,0-.47,53.64,32.2,32.2,0,0,0,0,53.34,32.2,32.2,0,0,0,.81,53.87v8.32Z" fill="#f9ecce"/><g id="inner_color" data-name="inner color"><rect x="47.02" y="47.02" width="417.96" height="417.96" fill="#6088a5"/></g><path id="inner_border" data-name="inner border" d="M466.29,466.29H45.72V45.71H466.29V466.29Zm-418-2.61H463.67V48.33H48.33V463.67Z" fill="#d9c7b2"/></g><path id="facebook" d="M321.21,125.49v54.4H288.58s-10.88.11-10.88,10.89v21.75h43.51l-10.65,54.62-32.86-.23V386.61H223.3V266.93H190.66v-54.4H223.3l2.61-36.34s-4.67-50.81,47.88-50.81S321.21,125.49,321.21,125.49Z" fill="#f9ecce" fill-rule="evenodd"/></svg>